# xmcd
#
# Track frame offsets:
#	150
#	11295
#	27867
#	44372
#	61882
#	75885
#	94665
#	113070
#	129992
#	143400
#	161185
#	174592
#	190877
#	205155
#	217640
#	233522
#	247410
#	269905
#	284547
#
# Disc length: 4020
#
# Revision: 1
# Processed by: cddbd v1.5.1PL0 Copyright (c) Steve Scherf et al.
# Submitted via: uFREEDB 1.6.0
# Normalized: r0:DSETVAR2,TDELIM( - )
#
DISCID=000fb213
DTITLE=Various Artist - Promo Vol 74
DYEAR=1994
DGENRE=Country
TTITLE0=The Statler Brothers - Chattanoogie Shoe Shine Boy
TTITLE1=Mike Henderson - Hillbilly Jitters
TTITLE2=Carlene Carter - I Love You Cause I Want To
TTITLE3=Merle Haggard - In My Next Life
TTITLE4=Marty Stuart - Kiss Me I'm Gone
TTITLE5=Little Texas - My Love
TTITLE6=Faith Hill - Piece Of My Heart
TTITLE7=Doug Supernaw - Red And Rio Grande
TTITLE8=Dude Mowrey - Somewhere In Between
TTITLE9=Garth Brooks - Standing Outside The Fire
TTITLE10=Gibson Miller Band - Stone Cold Country
TTITLE11=Travis Tritt - Take It Easy
TTITLE12=Billy Ray Cyrus - Words By Heart
TTITLE13=Twister Alley - Young Love
TTITLE14=John Berry - Your Love Amazes Me
TTITLE15=Bobby Hood - Love Me All Over
TTITLE16=Delbert McClinton - Two More Bottles Of Wine
TTITLE17=Hal Ketchum - For Today
TTITLE18=Michael James - Weather The Storm
EXTD=
EXTT0=
EXTT1=
EXTT2=
EXTT3=
EXTT4=
EXTT5=
EXTT6=
EXTT7=
EXTT8=
EXTT9=
EXTT10=
EXTT11=
EXTT12=
EXTT13=
EXTT14=
EXTT15=
EXTT16=
EXTT17=
EXTT18=
PLAYORDER=
